<svg class="svg-icon" style="width: 1em; height: 1em;vertical-align: middle;fill: currentColor;overflow: hidden;" viewBox="0 0 1024 1024" version="1.1" xmlns="http://www.w3.org/2000/svg"><path d="M946.3 418.5L588.8 95.7c-42.9-42-111.8-42-154.7 0L77.7 418.6c-16.4 14.8-17.6 40.1-2.8 56.5s40.1 17.6 56.5 2.8l357.1-323.5 1.4-1.4c11.9-11.9 31.2-11.9 43.1 0l0.7 0.7 358.9 324.2c7.7 6.9 17.2 10.3 26.8 10.3 10.9 0 21.8-4.4 29.7-13.2 14.9-16.4 13.6-41.6-2.8-56.5z"  /><path d="M809.6 439.3c-22.1 0-40 17.9-40 40v375.3c0 13.7-9.6 25.2-20.9 25.2h-64.9c-11.3 0-20.9-11.6-20.9-25.2V715.5c0-58-45.2-105.2-100.9-105.2H461c-55.6 0-100.9 47.2-100.9 105.2v10.9c-0.1 1.3-0.2 2.6-0.2 3.9v124.3c0 13.7-9.6 25.2-20.9 25.2h-64.9c-11.3 0-20.9-11.6-20.9-25.2V479.3c0-22.1-17.9-40-40-40s-40 17.9-40 40v375.3c0 58 45.2 105.2 100.9 105.2H339c54.1 0 98.3-44.6 100.8-100.4 0.2-1.6 0.3-3.2 0.3-4.8V715.5c0-13.7 9.6-25.2 20.9-25.2h101.2c11.3 0 20.9 11.6 20.9 25.2v139.1c0 58 45.2 105.2 100.9 105.2h64.9c55.6 0 100.9-47.2 100.9-105.2V479.3c-0.2-22.1-18.1-40-40.2-40z"  /></svg>