<svg class="css-11rkk79" viewBox="0 0 20 20"><g fill="none" fill-rule="evenodd"><path fill="#35C5F0" d="M16.41 0H3.59A3.59 3.59 0 0 0 0 3.59v12.82A3.59 3.59 0 0 0 3.59 20h12.82A3.59 3.59 0 0 0 20 16.41V3.59A3.59 3.59 0 0 0 16.41 0"></path><path fill="#FFF" d="M14.75 10.34c-.74 0-1.33-.6-1.33-1.34s.6-1.34 1.33-1.34 1.32.6 1.32 1.34-.59 1.34-1.32 1.34m-1 3.53H6.12V8.75l3.82-2.7 2.2 1.55a3 3 0 0 0-.35 1.4 3 3 0 0 0 1.98 2.83v2.04zm1-7.87c-.34 0-.66.06-.97.17l-3.17-2.24a1.18 1.18 0 0 0-1.35 0L4.5 7.28a1.2 1.2 0 0 0-.51.98v6.54c0 .66.53 1.2 1.19 1.2h9.5a1.2 1.2 0 0 0 1.18-1.2v-3.02A3 3 0 0 0 17.7 9c0-1.65-1.32-3-2.96-3z"></path></g></svg>