<svg class="svg-icon" style="width: 1em; height: 1em;vertical-align: middle;fill: currentColor;overflow: hidden;" viewBox="0 0 1024 1024" version="1.1" xmlns="http://www.w3.org/2000/svg"><path d="M794.624 366.24C788.672 357.344 778.688 352 768 352l-32 0c-17.696 0-32 14.304-32 32l0 192c0 17.696 14.304 32 32 32l128 0c17.696 0 32-14.304 32-32l0-48c0-6.304-1.888-12.512-5.376-17.76L794.624 366.24zM864 576l-128 0 0-192 32 0 96 144L864 576z"  /><path d="M1007.872 490.752l-128-192C862.016 271.968 832.128 256 800 256l-128 0L672 192c0-52.928-43.072-96-96-96L96 96C43.072 96 0 139.072 0 192l0 352c0 52.928 43.072 96 96 96l0 0 0 96c0 52.928 43.072 96 96 96l36.544 0c14.304 55.072 64 96 123.488 96 59.424 0 109.12-40.928 123.424-96l169.024 0c14.304 55.072 64 96 123.488 96 59.424 0 109.12-40.928 123.424-96L928 832c52.928 0 96-43.072 96-96l0-192C1024 524.992 1018.432 506.56 1007.872 490.752zM96 576c-17.664 0-32-14.304-32-32L64 192c0-17.696 14.336-32 32-32l480 0c17.696 0 32 14.304 32 32l0 64 0 64 0 224c0 17.696-14.304 32-32 32L96 576zM352.032 864c-35.36 0-64-28.672-64-64s28.64-64 64-64c35.328 0 64 28.672 64 64S387.328 864 352.032 864zM768 864c-35.36 0-64-28.672-64-64s28.64-64 64-64c35.328 0 64 28.672 64 64S803.328 864 768 864zM960 736c0 17.696-14.304 32-32 32l-36.576 0c-14.304-55.072-64-96-123.424-96-59.488 0-109.184 40.928-123.488 96l-169.024 0c-14.304-55.072-64-96-123.424-96-59.488 0-109.184 40.928-123.488 96L192 768c-17.664 0-32-14.304-32-32l0-96 416 0c52.928 0 96-43.072 96-96l0-224 128 0c10.688 0 20.672 5.344 26.624 14.24l128 192C958.112 531.488 960 537.696 960 544L960 736z"  /></svg>